<?xml version="1.0" standalone="no"?>
<!DOCTYPE svg PUBLIC "-//W3C//DTD SVG 20010904//EN"
 "http://www.w3.org/TR/2001/REC-SVG-20010904/DTD/svg10.dtd">
<svg version="1.0" xmlns="http://www.w3.org/2000/svg"
 width="512.000000pt" height="512.000000pt" viewBox="0 0 512.000000 512.000000"
 preserveAspectRatio="xMidYMid meet">

<g transform="translate(0.000000,512.000000) scale(0.100000,-0.100000)"
fill="#000000" stroke="none">
<path d="M1568 4813 c-16 -4 -18 -20 -18 -149 l0 -144 33 14 c17 7 49 21 69
31 l36 18 -21 29 c-17 23 -22 44 -23 96 0 37 -1 72 -2 78 -2 9 -48 37 -55 33
-1 -1 -10 -3 -19 -6z"/>
<path d="M3190 4609 c0 -50 2 -54 63 -118 226 -240 230 -606 8 -833 -56 -57
-71 -78 -73 -107 l-3 -35 -100 -17 c-55 -9 -118 -25 -140 -37 -59 -30 -156
-112 -178 -150 -67 -114 -23 -268 90 -325 38 -19 71 -26 160 -31 62 -3 126 -9
142 -12 l31 -6 0 -73 c0 -69 2 -75 44 -138 50 -75 83 -165 92 -252 6 -59 -27
-464 -47 -577 -11 -62 -35 -138 -68 -208 -16 -35 -21 -65 -21 -132 0 -49 3
-88 7 -88 26 0 384 207 558 324 340 226 689 533 882 772 41 51 83 96 94 99 24
8 25 56 3 204 -21 146 -50 265 -96 401 -227 666 -761 1183 -1430 1386 -16 5
-18 -2 -18 -47z"/>
<path d="M1383 3519 l-153 -50 0 -80 0 -79 28 7 c52 15 118 7 164 -20 60 -35
204 -185 228 -238 24 -53 25 -90 5 -155 -27 -89 -13 -167 38 -222 30 -32 57
-45 178 -87 75 -25 112 -43 131 -65 61 -67 47 -133 -45 -212 -78 -67 -83 -72
-112 -133 -21 -42 -25 -65 -25 -142 0 -108 21 -178 74 -239 52 -61 191 -151
260 -169 32 -9 63 -18 67 -21 5 -3 9 -126 9 -275 0 -148 1 -269 3 -269 17 0
409 135 426 146 2 2 19 56 38 121 29 100 34 130 30 194 -9 179 -135 321 -320
359 -40 8 -81 27 -134 63 -156 105 -196 167 -201 316 -6 146 4 170 115 277 83
80 95 96 100 132 7 51 -10 96 -46 121 -14 10 -70 33 -125 50 -114 37 -143 51
-172 83 -56 61 -66 125 -38 238 26 103 14 133 -110 259 -107 110 -156 141
-221 141 -22 0 -109 -23 -192 -51z"/>
<path d="M4600 2298 c-373 -388 -830 -715 -1415 -1013 -264 -134 -469 -220
-755 -315 -274 -92 -490 -147 -720 -186 -91 -15 -166 -28 -167 -29 -1 0 -5
-31 -9 -68 l-7 -67 105 -50 c201 -96 441 -163 698 -195 554 -68 1155 108 1605
470 430 345 727 866 799 1400 13 95 25 216 22 215 -1 -1 -71 -73 -156 -162z"/>
</g>
</svg>
